<svg xmlns:xlink="http://www.w3.org/1999/xlink" xmlns="http://www.w3.org/2000/svg" width="482.40000000000003" height="266.3264146376455" viewBox="0 0 369.9024390243903 204.21805628334604" class="css-1j8o68f"><defs id="SvgjsDefs1049"></defs><g id="SvgjsG1050" featurekey="symbolFeature-0" transform="matrix(1.2930070759162637,0,0,1.2930070759162637,258.30067211848257,37.534964620418684)" fill="#111111"><path xmlns="http://www.w3.org/2000/svg" style="" d="m 13.688908,34.591072 c -0.06216,10.799086 6.999259,17.210259 11.831548,24.828265 4.862638,7.665845 5.625087,15.265459 2.71156,27.027619 7.032738,6.130517 20.69576,5.117287 32.554351,8.553044 0.482629,-6.001568 -0.410531,-12.305347 1.769258,-14.500098 3.165857,-3.187575 9.139541,4.089003 13.137476,-0.791768 2.77907,-3.392741 -2.060685,-5.395776 3.016537,-10.992861 1.223221,-1.348472 -2.343721,-1.819314 -2.383122,-3.051726 -0.03424,-1.07095 2.699318,0.390892 3.344973,-0.912976 0.67641,-1.365973 -1.407145,-3.792094 -0.230688,-5.268675 1.445943,-1.814784 5.287337,1.700088 6.703632,-1.698879 1.186437,-2.847351 -4.23256,-8.626665 -6.87567,-14.087596 -1.366248,-2.822798 1.077763,-5.765468 1.163214,-9.03397 C 80.897979,16.834817 66.480741,5.6835255 48.087746,5.0327951 29.694752,4.3820648 13.810884,13.386849 13.688908,34.591072 Z M 45.173885,12.196759 c 3.090415,-0.09203 6.538828,0.263985 10.377043,1.214043 6.058613,1.499666 10.199581,4.782296 12.572485,8.355591 2.372903,3.573294 3.063689,7.421181 2.007766,10.255833 -1.204644,3.233891 -3.429112,5.240599 -5.978333,6.289175 -2.549221,1.048573 -5.391735,1.211206 -8.085803,1.067421 -6.641367,-0.354459 -10.601097,1.428516 -13.987894,4.668495 -1.373013,1.313492 -3.692177,3.444726 -6.494448,4.633306 -2.802271,1.188581 -6.329024,1.286034 -9.192323,-1.54639 -3.619007,-3.579988 -4.977814,-8.585517 -4.81512,-13.383803 0.162685,-4.798288 1.80583,-9.442971 4.463224,-12.539252 3.798707,-4.426087 9.862189,-8.738338 19.133403,-9.014419 z" fill="#111111"></path><path xmlns="http://www.w3.org/2000/svg" style="" d="m 45.225437,14.403933 c -8.629845,0.200921 -13.959376,4.176549 -17.475585,8.273482 -2.219217,2.585732 -3.777097,6.827029 -3.923646,11.149259 -0.146549,4.32223 1.077273,8.670295 4.14847,11.708384 2.239016,2.214877 4.423901,2.051839 6.731001,1.073285 2.307101,-0.978555 4.495099,-2.920046 5.818025,-4.185616 3.745247,-3.582883 8.550981,-5.669774 15.663315,-5.290179 2.511745,0.134055 5.040586,-0.05107 7.112224,-0.903202 2.071627,-0.852128 3.719081,-2.297347 4.723235,-4.993023 0.687763,-1.846327 0.285801,-5.125999 -1.773174,-8.226562 -2.058975,-3.100562 -5.688592,-6.039372 -11.239183,-7.41329 -3.66503,-0.90719 -6.90807,-1.259512 -9.784682,-1.192538 z" fill="#111111"></path></g><g id="SvgjsG1051" featurekey="nameFeature-0" transform="matrix(2.694666183095387,0,0,2.694666183095387,-6.683850230806918,-26.94450831012044)" fill="#111111"><path d="M35.996 40 l-5.8398 0 l-1.8555 -21.27 l-7.1484 21.27 l-3.7891 0 l-7.1484 -21.27 l-1.875 21.27 l-5.8594 0 l2.3633 -28.223 l8.3594 0 l6.0156 17.715 l6.0938 -17.715 l8.3594 0 z M44.2578625 16.914 c-1.7773 0 -3.2617 -1.4453 -3.2617 -3.2422 c0 -1.7773 1.4844 -3.2227 3.2617 -3.2227 c1.7383 0 3.2227 1.4453 3.2227 3.2227 c0 1.7969 -1.4844 3.2422 -3.2227 3.2422 z M41.3867625 40 l0 -20.078 l5.6641 0 l0 20.078 l-5.6641 0 z M64.7269375 19.531 c4.8242 0 7.4805 2.5 7.4805 6.9531 l0 13.516 l-5.6445 0 l0 -12.305 c0 -2.6758 -1.6602 -3.6523 -3.5938 -3.6523 c-2.3242 0 -4.4336 1.1719 -4.4727 4.8828 l0 11.074 l-5.625 0 l0 -20.078 l5.625 0 l0 2.2266 c1.4063 -1.6602 3.5742 -2.6172 6.2305 -2.6172 z M91.89409375 10 l5.625 0 l0 30 l-5.332 0 l-0.13672 -2.6172 c-1.1523 1.9727 -3.5742 3.0859 -6.3086 3.0859 c-5.293 0 -9.668 -3.9063 -9.668 -10.469 s4.3945 -10.469 9.668 -10.469 c2.6367 0 4.9609 0.99609 6.1523 2.8125 l0 -12.344 z M87.03109375 35.8008 c2.9883 0 5.3125 -2.2852 5.3125 -5.8008 s-2.3438 -5.8203 -5.3125 -5.8203 c-2.9883 0 -5.332 2.207 -5.332 5.8203 c0 3.5938 2.3438 5.8008 5.332 5.8008 z" fill="#111111"></path></g><g id="SvgjsG1052" featurekey="nameFeature-1" transform="matrix(1.4423208427338357,0,0,1.4423208427338357,-2.477907802034606,77.57679157266165)" fill="#111111"><path d="M16.152 40.39063 c-8.3008 0 -14.434 -5.6445 -14.434 -14.512 s6.1328 -14.492 14.434 -14.492 c6.2891 0 11.328 3.2227 13.34 8.5742 l-5.4688 1.9922 c-1.25 -3.2813 -4.2383 -5.1758 -7.8711 -5.1758 c-4.8633 0 -8.5938 3.3984 -8.5938 9.1016 s3.7305 9.1211 8.5938 9.1211 c3.6328 0 6.6211 -1.9141 7.8711 -5.1953 l5.4688 1.9922 c-2.0117 5.3516 -7.0508 8.5938 -13.34 8.5938 z M42.91053125 40.39063 c-6.3867 0 -10.996 -3.8867 -10.996 -10.449 c0 -6.5234 4.5703 -10.41 10.996 -10.41 c6.4648 0 11.016 3.8867 11.016 10.41 c0 6.5625 -4.5703 10.449 -11.016 10.449 z M42.85153125 35.918 c3.2617 0 5.4883 -2.3828 5.4883 -5.9766 s-2.2266 -5.9766 -5.4883 -5.9766 c-3.1445 0 -5.3516 2.3828 -5.3516 5.9766 s2.207 5.9766 5.3516 5.9766 z M58.1055125 40 l0 -30 l5.6836 0 l0 30 l-5.6836 0 z M69.60941875 40 l0 -30 l5.6836 0 l0 30 l-5.6836 0 z M100.000125 29.668 l-0.058594 1.3477 l-14.883 0 c0.23438 3.3398 2.4609 4.9414 5.1367 4.9414 c2.0117 0 3.5742 -0.9375 4.3359 -2.7148 l5.1563 0.76172 c-1.3281 4.0625 -4.9414 6.3867 -9.4531 6.3867 c-6.4844 0 -10.723 -3.8281 -10.723 -10.43 s4.3555 -10.469 10.547 -10.469 c5.6836 0 9.9219 3.1445 9.9414 10.176 z M90.098125 23.477 c-2.5586 0 -4.3359 1.1914 -4.8828 3.8672 l9.2188 0 c-0.29297 -2.5586 -2.0313 -3.8672 -4.3359 -3.8672 z M113.3591875 40.37109 c-6.3086 0 -10.762 -4.1992 -10.762 -10.43 c0 -6.25 4.4531 -10.41 10.762 -10.41 c5.0781 0 8.8867 2.6367 9.8633 7.3828 l-5.1953 0.56641 c-0.625 -2.4023 -2.3633 -3.5156 -4.7266 -3.5156 c-3.0273 0 -5.0781 2.3828 -5.0781 5.9766 c0 3.5742 2.0508 5.9766 5.0781 5.9766 c2.3633 0 4.1016 -1.1328 4.7266 -3.5156 l5.1953 0.56641 c-0.97656 4.7461 -4.8828 7.4023 -9.8633 7.4023 z M134.70740625 40 c-3.9063 0 -6.1328 -2.2656 -6.1328 -6.2695 l0 -9.4922 l-3.9453 0 l0 -4.3164 l1.2695 0 c2.1289 0 3.3008 -0.82031 3.3008 -3.8281 l0 -2.6563 l5.0781 0 l0 6.4844 l4.1406 0 l0 4.3164 l-4.1406 0 l0 8.8867 c0 1.7969 0.87891 2.5977 2.3242 2.5977 l1.8164 0 l0 4.2773 l-3.7109 0 z M152.12928125 40.39063 c-6.3867 0 -10.996 -3.8867 -10.996 -10.449 c0 -6.5234 4.5703 -10.41 10.996 -10.41 c6.4648 0 11.016 3.8867 11.016 10.41 c0 6.5625 -4.5703 10.449 -11.016 10.449 z M152.07028125 35.918 c3.2617 0 5.4883 -2.3828 5.4883 -5.9766 s-2.2266 -5.9766 -5.4883 -5.9766 c-3.1445 0 -5.3516 2.3828 -5.3516 5.9766 s2.207 5.9766 5.3516 5.9766 z M172.7148625 23.105 c1.0156 -1.7773 3.6523 -3.418 6.5625 -3.418 l0 5.0195 c-4.2578 0 -6.2891 1.25 -6.2891 5.5078 l0 9.7852 l-5.6641 0 l0 -20.078 l5.3906 0 l0 3.1836 z" fill="#111111"></path></g><g id="SvgjsG1053" featurekey="sloganFeature-0" transform="matrix(20.48780487804878,0,0,20.48780487804878,-3.211513937973397,-253.7560975609756)" fill="#FFFFFF"><path d="M1.4258 22.3535 l0 -2.3535 l10 0 l0 2.3535 l-10 0 z" fill="#FFFFFF"></path></g></svg>